<svg xmlns:dc="http://purl.org/dc/elements/1.1/" xmlns:cc="http://creativecommons.org/ns#" xmlns:rdf="http://www.w3.org/1999/02/22-rdf-syntax-ns#" xmlns:svg="http://www.w3.org/2000/svg" xmlns="http://www.w3.org/2000/svg" xmlns:sodipodi="http://sodipodi.sourceforge.net/DTD/sodipodi-0.dtd" xmlns:inkscape="http://www.inkscape.org/namespaces/inkscape" version="1.1" x="0px" y="0px" viewBox="0 0 100 100"><g transform="translate(0,-952.36218)"><path style="text-indent:0;text-transform:none;direction:ltr;block-progression:tb;baseline-shift:baseline;color:currentColor;enable-background:accumulate;" d="m 52,956.36511 c -6.137,0 -11.43439,3.75212 -13.75,9.0625 -2.38492,-3.06266 -6.09522,-5.0625 -10.25,-5.0625 -7.14417,0 -13,5.85582 -13,13 0,3.48574 1.3987,6.65819 3.65625,9 l -0.65625,0 c -1.65289,0.004 -2.96711,1.73579 -3,3 l 0,29.99999 c 1.6e-4,1.5707 1.42925,2.9998 3,3 l 11.75,0 7.53125,10.4062 -10.71875,14.8125 a 3.009805,3.009805 0 1 0 4.875,3.5313 L 41,1033.8963 l 9.5625,13.2188 a 3.009805,3.009805 0 1 0 4.875,-3.5313 l -10.71875,-14.8125 7.53125,-10.4062 11.75,0 c 1.57075,-2e-4 2.99984,-1.4293 3,-3 l 0,-3.2813 14.34375,3.1875 c 1.74109,0.3902 3.64349,-1.122 3.65625,-2.9062 l 0,-23.99999 c -0.19597,-2.40406 -2.1306,-3.26727 -3.65625,-2.9375 L 67,988.61511 l 0,-3.25 c -1.6e-4,-1.57075 -1.42925,-2.99984 -3,-3 l -1.84375,0 C 65.127,979.61953 67,975.70354 67,971.36511 c 0,-8.24874 -6.75126,-15 -15,-15 z m 0,6 c 5.0061,0 9,3.9939 9,9 0,5.00609 -3.9939,9 -9,9 -5.0061,0 -9,-3.99391 -9,-9 0,-5.0061 3.9939,-9 9,-9 z m -24,4 c 3.90153,0 7,3.09846 7,7 0,3.90152 -3.09847,7 -7,7 -3.90153,0 -7,-3.09848 -7,-7 0,-3.90154 3.09847,-7 7,-7 z m 11.4375,13.1875 c 0.67964,1.0364 1.49912,1.97413 2.40625,2.8125 l -4.5,0 c 0.81163,-0.84192 1.52999,-1.7788 2.09375,-2.8125 z M 21,988.36511 l 40,0 0,23.99999 -40,0 0,-23.99999 z m 58,3.71879 0,16.5312 -12,-2.6563 0,-11.2187 12,-2.6562 z m -41.8125,26.2812 7.625,0 -3.8125,5.2812 -3.8125,-5.2812 z" fill="currentColor" fill-opacity="1" stroke="none" marker="none" visibility="visible" display="inline" overflow="visible"/></g><text x="0" y="115" fill="#ffffff" font-size="5px" font-weight="bold" font-family="'Helvetica Neue', Helvetica, Arial-Unicode, Arial, Sans-serif">Created by iconsphere</text><text x="0" y="120" fill="#ffffff" font-size="5px" font-weight="bold" font-family="'Helvetica Neue', Helvetica, Arial-Unicode, Arial, Sans-serif">from the Noun Project</text></svg>